<?xml version="1.0" encoding="UTF-8"?>
<svg width="78px" height="78px" viewBox="0 0 78 78" version="1.1" xmlns="http://www.w3.org/2000/svg" xmlns:xlink="http://www.w3.org/1999/xlink">
    <!-- Generator: Sketch 55.2 (78181) - https://sketchapp.com -->
    <title>Combined-Shape</title>
    <desc>Created with Sketch.</desc>
    <g id="Page-1" stroke="none" stroke-width="1" fill="none" fill-rule="evenodd">
        <g id="airdevfavwhite" fill="#FFFFFF" fill-rule="nonzero">
            <path d="M39,78 C17.4608948,78 0,60.5391052 0,39 C0,17.4608948 17.4608948,0 39,0 C60.5391052,0 78,17.4608948 78,39 C78,60.5391052 60.5391052,78 39,78 Z M24.2944519,38.3470637 C26.8061997,36.8969054 30.1851264,35.8914406 34.4313332,35.3306391 C37.3270352,34.9080485 39.6548022,34.4081825 41.4147041,33.8310261 C43.1746059,33.2538697 44.917944,32.4668115 46.6447707,31.4698276 C50.7001969,29.1284262 53.2523682,25.8148549 54.3013611,21.5290142 L49.2355716,12.7548095 C48.6560509,15.0139064 47.7760558,17.024418 46.5955599,18.7864046 C45.4150639,20.5483912 44.1314881,21.8296694 42.744794,22.6302777 C40.180718,24.1106476 36.8091013,25.1287735 32.6298425,25.6846858 C30.1997008,26.0073018 28.0239127,26.4531856 26.1024128,27.0223506 C24.1809129,27.5915156 22.2652042,28.4274478 20.3552293,29.5301724 C16.3521311,31.8413622 13.7999599,35.1549335 12.6986389,39.4709858 L17.7644284,48.2451905 C18.387809,46.0620611 19.272228,44.0743175 20.4177119,42.2819 C21.5631959,40.4894826 22.8554297,39.1778836 24.2944519,38.3470637 Z M34.2944519,55.3470637 C36.8061997,53.8969054 40.1851264,52.8914406 44.4313332,52.3306391 C47.3270352,51.9080485 49.6548022,51.4081825 51.4147041,50.8310261 C53.1746059,50.2538697 54.917944,49.4668115 56.6447707,48.4698276 C60.7001969,46.1284262 63.2523682,42.8148549 64.3013611,38.5290142 L59.2355716,29.7548095 C58.6560509,32.0139064 57.7760558,34.024418 56.5955599,35.7864046 C55.4150639,37.5483912 54.1314881,38.8296694 52.744794,39.6302777 C50.180718,41.1106476 46.8091013,42.1287735 42.6298425,42.6846858 C40.1997008,43.0073018 38.0239127,43.4531856 36.1024128,44.0223506 C34.1809129,44.5915156 32.2652042,45.4274478 30.3552293,46.5301724 C26.3521311,48.8413622 23.7999599,52.1549335 22.6986389,56.4709858 L27.7644284,65.2451905 C28.387809,63.0620611 29.272228,61.0743175 30.4177119,59.2819 C31.5631959,57.4894826 32.8554297,56.1778836 34.2944519,55.3470637 Z" id="Combined-Shape"></path>
        </g>
    </g>
</svg>